<?xml version="1.0" encoding="utf-8"?>
<!-- Generator: Adobe Illustrator 25.0.0, SVG Export Plug-In . SVG Version: 6.00 Build 0)  -->
<svg version="1.1" id="Layer_1" xmlns="http://www.w3.org/2000/svg" xmlns:xlink="http://www.w3.org/1999/xlink" x="0px" y="0px"
	 viewBox="0 0 32 32" style="enable-background:new 0 0 32 32;" xml:space="preserve">
<style type="text/css">
	.st0{fill:none;}
	.st1{fill:#A06127;}
	.st2{fill:#D85BA0;}
	.st3{fill:#FFFFFF;}
</style>
<g>
	<rect x="0" y="-0.01" class="st0" width="32" height="32"/>
	<rect x="8" y="4.99" transform="matrix(0.7071 0.7071 -0.7071 0.7071 13.8745 -7.5078)" class="st1" width="16" height="16"/>
	<rect x="8" y="4.99" transform="matrix(0.7071 0.7071 -0.7071 0.7071 13.8745 -7.5078)" class="st2" width="16" height="16"/>
	<polygon class="st2" points="24,21.99 16,29.99 8,21.99 8,18.99 16,26.99 24,18.99 	"/>
	<g>
		<path class="st3" d="M13.07,15.36l0.76-1.02c0.48,0.47,1.08,0.84,1.82,0.84c0.83,0,1.39-0.41,1.39-1.13c0-0.8-0.47-1.3-2.25-1.3
			v-1.17c1.5,0,1.98-0.52,1.98-1.24c0-0.64-0.4-1.01-1.09-1.02c-0.58,0.01-1.06,0.29-1.54,0.73l-0.83-0.99c0.7-0.62,1.49-1,2.44-1
			c1.57,0,2.64,0.77,2.64,2.17c0,0.88-0.49,1.52-1.36,1.86v0.05c0.92,0.25,1.63,0.94,1.63,2c0,1.5-1.31,2.37-2.86,2.37
			C14.51,16.49,13.64,16,13.07,15.36z"/>
	</g>
	<polygon class="st2" points="31,14.99 26,19.99 26,16.99 31,11.99 	"/>
	<polygon class="st2" points="31,19.99 26,24.99 26,21.99 31,16.99 	"/>
	<polygon class="st2" points="1,14.99 6,19.99 6,16.99 1,11.99 	"/>
	<polygon class="st2" points="1,19.99 6,24.99 6,21.99 1,16.99 	"/>
</g>
</svg>
