<?xml version="1.0" encoding="utf-8"?>
<!-- Generator: Adobe Illustrator 25.0.0, SVG Export Plug-In . SVG Version: 6.00 Build 0)  -->
<svg version="1.1" id="Layer_1" xmlns="http://www.w3.org/2000/svg" xmlns:xlink="http://www.w3.org/1999/xlink" x="0px" y="0px"
	 viewBox="0 0 32 32" style="enable-background:new 0 0 32 32;" xml:space="preserve">
<style type="text/css">
	.st0{fill:none;}
	.st1{fill:#61B6E5;}
	.st2{fill:#70A4EF;}
	.st3{fill:#FFFFFF;}
</style>
<g>
	<rect class="st0" width="32" height="32"/>
	<rect x="8" y="5" transform="matrix(0.7071 0.7071 -0.7071 0.7071 13.8787 -7.5061)" class="st1" width="16" height="16"/>
	<rect x="8" y="5" transform="matrix(0.7071 0.7071 -0.7071 0.7071 13.8787 -7.5061)" class="st2" width="16" height="16"/>
	<polygon class="st2" points="24,22 16,30 8,22 8,19 16,27 24,19 	"/>
	<g>
		<path class="st3" d="M18.95,14.23h-0.97v2.11h-1.51v-2.11h-3.46v-1.1l3.04-4.93h1.94V13h0.97V14.23z M16.48,13v-1.66
			c0-0.47,0.04-1.21,0.07-1.68H16.5c-0.2,0.43-0.42,0.88-0.65,1.32L14.59,13H16.48z"/>
	</g>
</g>
</svg>
