<?xml version="1.0" encoding="utf-8"?>
<!-- Generator: Adobe Illustrator 25.0.0, SVG Export Plug-In . SVG Version: 6.00 Build 0)  -->
<svg version="1.1" id="Layer_1" xmlns="http://www.w3.org/2000/svg" xmlns:xlink="http://www.w3.org/1999/xlink" x="0px" y="0px"
	 viewBox="0 0 32 32" style="enable-background:new 0 0 32 32;" xml:space="preserve">
<style type="text/css">
	.st0{fill:none;}
	.st1{fill:#E8B646;}
	.st2{fill:#FFFFFF;}
</style>
<g>
	<rect y="-0.01" class="st0" width="32" height="32"/>
	<rect x="8" y="4.99" transform="matrix(0.7071 0.7071 -0.7071 0.7071 13.8745 -7.5078)" class="st1" width="16" height="16"/>
	<rect x="8" y="4.99" transform="matrix(0.7071 0.7071 -0.7071 0.7071 13.8745 -7.5078)" class="st1" width="16" height="16"/>
	<polygon class="st1" points="24,21.99 16,29.99 8,21.99 8,18.99 16,26.99 24,18.99 	"/>
	<g>
		<path class="st2" d="M13.07,15.38l0.75-1.03c0.46,0.45,1.03,0.82,1.79,0.82c0.85,0,1.44-0.54,1.44-1.5c0-0.95-0.55-1.47-1.38-1.47
			c-0.48,0-0.75,0.12-1.22,0.43l-0.74-0.48l0.22-3.95h4.36v1.35h-2.96l-0.15,1.73c0.32-0.15,0.61-0.23,0.98-0.23
			c1.36,0,2.51,0.81,2.51,2.58c0,1.82-1.34,2.86-2.85,2.86C14.53,16.49,13.67,15.98,13.07,15.38z"/>
	</g>
</g>
</svg>
