<?xml version="1.0" encoding="utf-8"?>
<!-- Generator: Adobe Illustrator 25.0.0, SVG Export Plug-In . SVG Version: 6.00 Build 0)  -->
<svg version="1.1" id="Layer_1" xmlns="http://www.w3.org/2000/svg" xmlns:xlink="http://www.w3.org/1999/xlink" x="0px" y="0px"
	 viewBox="0 0 32 32" style="enable-background:new 0 0 32 32;" xml:space="preserve">
<style type="text/css">
	.st0{fill:none;}
	.st1{fill:#A06127;}
	.st2{fill:#D85BA0;}
	.st3{fill:#FFFFFF;}
</style>
<g>
	<rect x="0" y="0" class="st0" width="32" height="32"/>
	<rect x="8" y="5" transform="matrix(0.7071 0.7071 -0.7071 0.7071 13.8787 -7.5061)" class="st1" width="16" height="16"/>
	<rect x="8" y="5" transform="matrix(0.7071 0.7071 -0.7071 0.7071 13.8787 -7.5061)" class="st2" width="16" height="16"/>
	<polygon class="st2" points="24,22 16,30 8,22 8,19 16,27 24,19 	"/>
	<g>
		<path class="st3" d="M13.68,15.03h1.75V9.88h-1.47v-1c0.81-0.15,1.38-0.36,1.89-0.68h1.2v6.83h1.53v1.31h-4.9V15.03z"/>
	</g>
	<polygon class="st2" points="31,15 26,20 26,17 31,12 	"/>
	<polygon class="st2" points="31,20 26,25 26,22 31,17 	"/>
	<polygon class="st2" points="1,15 6,20 6,17 1,12 	"/>
	<polygon class="st2" points="1,20 6,25 6,22 1,17 	"/>
</g>
</svg>
