<?xml version="1.0" encoding="utf-8"?>
<!-- Generator: Adobe Illustrator 25.0.0, SVG Export Plug-In . SVG Version: 6.00 Build 0)  -->
<svg version="1.1" id="Layer_1" xmlns="http://www.w3.org/2000/svg" xmlns:xlink="http://www.w3.org/1999/xlink" x="0px" y="0px"
	 viewBox="0 0 32 32" style="enable-background:new 0 0 32 32;" xml:space="preserve">
<style type="text/css">
	.st0{fill:none;}
	.st1{fill:#A8AEAF;}
	.st2{fill:#FFFFFF;}
</style>
<g>
	<rect y="0.03" class="st0" width="32" height="32"/>
	<rect x="8" y="5.03" transform="matrix(0.7071 0.7071 -0.7071 0.7071 13.9012 -7.4967)" class="st1" width="16" height="16"/>
	<rect x="8" y="5.03" transform="matrix(0.7071 0.7071 -0.7071 0.7071 13.9012 -7.4967)" class="st1" width="16" height="16"/>
	<polygon class="st1" points="24,22.03 16,30.03 8,22.03 8,19.03 16,27.03 24,19.03 	"/>
	<g>
		<path class="st2" d="M13.25,15.44c2.21-1.98,3.52-3.51,3.52-4.76c0-0.83-0.45-1.32-1.22-1.32c-0.59,0-1.09,0.39-1.5,0.84
			l-0.88-0.88c0.75-0.79,1.47-1.23,2.58-1.23c1.54,0,2.56,0.99,2.56,2.51c0,1.47-1.22,3.06-2.71,4.51c0.41-0.04,0.95-0.09,1.32-0.09
			h1.77v1.36h-5.46V15.44z"/>
	</g>
</g>
</svg>
