<svg width="16" height="16" viewBox="0 0 16 16" fill="none" xmlns="http://www.w3.org/2000/svg">
<g id="icon_error_16">
<path id="!" d="M8.00025 4C7.53534 4 7.16166 4.38288 7.17297 4.84766L7.25635 8.27398C7.26618 8.67777 7.59634 9 8.00025 9C8.40417 9 8.73433 8.67777 8.74416 8.27398L8.82753 4.84766C8.83884 4.38288 8.46517 4 8.00025 4Z" fill="#FF006B"/>
<path id="!_2" d="M7.9962 11.462C8.56654 11.462 9 11.0361 9 10.481C9 9.92586 8.56654 9.5 7.9962 9.5C7.44106 9.5 7 9.92586 7 10.481C7 11.0361 7.44106 11.462 7.9962 11.462Z" fill="#FF006B"/>
<circle id="Ellipse 84" cx="8" cy="8" r="7" stroke="#FF006B" stroke-width="1.6"/>
</g>
</svg>
