<svg width="24" height="24" viewBox="0 0 24 24" fill="none" xmlns="http://www.w3.org/2000/svg">
<path fill-rule="evenodd" clip-rule="evenodd" d="M5 10C5 6.68629 7.68629 4 11 4C14.3137 4 17 6.68629 17 10C17 13.3137 14.3137 16 11 16C7.68629 16 5 13.3137 5 10ZM11 2C6.58172 2 3 5.58172 3 10C3 14.4183 6.58172 18 11 18C12.5766 18 14.0467 17.5439 15.2855 16.7565L19.2567 21.169C19.6262 21.5795 20.2585 21.6128 20.669 21.2433C21.0795 20.8738 21.1128 20.2416 20.7433 19.831L16.8279 15.4806C18.1748 14.0489 19 12.1208 19 10C19 5.58172 15.4183 2 11 2Z" fill="#374553"/>
</svg>
