<svg width="16" height="16" viewBox="0 0 16 16" fill="none" xmlns="http://www.w3.org/2000/svg">
<path fill-rule="evenodd" clip-rule="evenodd" d="M7.15193 12.8087C7.04769 12.4562 6.91654 12.0446 6.71574 11.643C6.19543 10.6024 5.23005 9.58556 4.19923 8.97213L2.89649 3.32694C3.0939 3.23548 3.38078 3.13212 3.77774 3.02134C4.62408 2.78515 5.87597 2.54094 7.61334 2.29274C9.35702 2.04364 10.355 2.22158 10.9179 2.4731C11.4489 2.71039 11.6543 3.04013 11.7574 3.29789C11.8037 3.41365 11.8596 3.54813 11.9224 3.69938C12.2882 4.58002 12.89 6.02896 13.2157 7.65767C13.3215 8.18675 13.2781 8.50098 13.2152 8.67809C13.1569 8.84187 13.0648 8.93885 12.9512 9.00988C12.6697 9.18582 12.2677 9.20078 12.0002 9.20078H8.5002C8.22294 9.20078 7.96544 9.34434 7.81968 9.5802C7.67391 9.81605 7.66066 10.1106 7.78466 10.3586C8.24258 11.2744 8.53803 12.3966 8.52352 13.237C8.5162 13.6611 8.43146 13.9205 8.34266 14.0513C8.28615 14.1345 8.21305 14.2008 8.0002 14.2008C7.78684 14.2008 7.70982 14.1476 7.67049 14.1138C7.6091 14.0611 7.52838 13.9521 7.43391 13.7115C7.35841 13.5192 7.2977 13.3098 7.22241 13.0501C7.20041 12.9742 7.17716 12.894 7.15193 12.8087ZM6.62795 15.3276C6.99943 15.6466 7.46355 15.8008 8.0002 15.8008C8.71828 15.8008 9.29815 15.4921 9.66619 14.9503C10.0019 14.456 10.1133 13.8404 10.1233 13.2646C10.1367 12.4898 9.96903 11.6177 9.69462 10.8008H12.0002C12.007 10.8008 12.0142 10.8008 12.022 10.8008C12.2819 10.8013 13.1016 10.8027 13.7992 10.3667C14.1856 10.1252 14.531 9.75344 14.7227 9.2141C14.9098 8.68808 14.9288 8.06482 14.7847 7.34389C14.4246 5.54335 13.7524 3.93024 13.3912 3.06324C13.3328 2.9231 13.2825 2.80246 13.243 2.70367C13.0128 2.1281 12.5436 1.44707 11.5706 1.01231C10.6295 0.591775 9.29413 0.436383 7.38706 0.708821C5.62443 0.960626 4.29298 1.21641 3.34766 1.48022C2.87608 1.61183 2.47669 1.7519 2.15899 1.90593C1.86309 2.0494 1.53841 2.25125 1.33456 2.55702C1.21234 2.74035 1.17114 2.96597 1.22069 3.18067L2.72069 9.68067C2.77434 9.91318 2.929 10.1096 3.14243 10.2163C3.98761 10.6389 4.86207 11.5134 5.28466 12.3586C5.41927 12.6278 5.51832 12.9266 5.6176 13.2624C5.6357 13.3236 5.65427 13.3879 5.67342 13.4541C5.75155 13.7245 5.83933 14.0282 5.94461 14.2963C6.07878 14.638 6.27853 15.0274 6.62795 15.3276Z" fill="#4992FF"/>
<rect width="4" height="10" rx="1" transform="matrix(1 0 0 -1 1 11)" fill="#4992FF"/>
</svg>
