<svg xmlns="http://www.w3.org/2000/svg" width="24" height="24" viewBox="0 0 24 24" fill="none">
  <path fill-rule="evenodd" clip-rule="evenodd" d="M19.4783 16H4.27975C4.31862 15.9245 4.36503 15.8525 4.41865 15.7851L4.71615 15.4111C5.61935 14.2757 6.11391 12.8693 6.12013 11.4185L6.13175 8.70677C6.14527 5.55106 8.70729 3 11.863 3C15.0188 3 17.5808 5.55106 17.5943 8.70677L17.6046 11.1049C17.6117 12.7588 18.1755 14.3622 19.2051 15.6565L19.4783 16ZM2.15634 16.9749C2.07796 16.292 2.2148 15.6066 2.5403 15.0116C2.63041 14.8468 2.73499 14.689 2.85346 14.5401L3.15097 14.1661C3.77445 13.3823 4.11585 12.4114 4.12015 11.4099L4.13177 8.6982C4.15001 4.44128 7.60607 1 11.863 1C16.12 1 19.5761 4.44128 19.5943 8.6982L19.6046 11.0963C19.6097 12.3009 20.0204 13.4687 20.7703 14.4115L21.0951 14.8198C21.5075 15.3382 21.7661 15.9618 21.8416 16.6198C21.926 17.3552 21.351 18 20.6108 18H16.1808C16.1808 18.0993 16.1659 18.2002 16.1346 18.2999C15.5827 20.0571 13.9417 21.3336 11.9998 21.3336C10.058 21.3336 8.41696 20.0571 7.86507 18.2999C7.83375 18.2002 7.81885 18.0993 7.81885 18H3.30579C2.71784 18 2.22338 17.559 2.15634 16.9749ZM9.89062 18C10.2654 18.7892 11.0701 19.3336 11.9998 19.3336C12.9296 19.3336 13.7343 18.7892 14.1091 18H9.89062Z" fill="#374553"/>
</svg>