<svg width="16" height="15" viewBox="0 0 16 15" fill="none" xmlns="http://www.w3.org/2000/svg">
<path fill-rule="evenodd" clip-rule="evenodd" d="M9.13819 0.906991C10.2194 0.168602 11.711 -0.154446 13.4038 0.75067C14.5725 1.37557 15.3161 2.34976 15.629 3.5184C15.9366 4.66704 15.8162 5.95103 15.3735 7.22452C14.4894 9.76798 12.269 12.4337 9.02743 14.3406C8.39313 14.7137 7.60688 14.7137 6.97258 14.3406C3.731 12.4337 1.5106 9.76798 0.626498 7.22452C0.183835 5.95103 0.063422 4.66704 0.370991 3.5184C0.683917 2.34976 1.42747 1.37557 2.5962 0.75067C4.289 -0.154446 5.78057 0.168602 6.86182 0.906991C7.31409 1.21584 7.69593 1.59673 8 1.98613C8.30408 1.59673 8.68592 1.21584 9.13819 0.906991ZM10.0405 2.22829C9.33211 2.71205 8.88053 3.47142 8.76378 3.84608C8.65961 4.18037 8.35015 4.40807 8 4.40807C7.64986 4.40807 7.3404 4.18037 7.23623 3.84608C7.11948 3.47142 6.6679 2.71205 5.95951 2.22829C5.31099 1.78541 4.45681 1.57018 3.35062 2.16164C2.5722 2.57785 2.11501 3.19105 1.91654 3.93225C1.71271 4.69346 1.77024 5.64178 2.1378 6.6992C2.87414 8.81758 4.80328 11.2082 7.78382 12.9615C7.9174 13.04 8.08261 13.04 8.21619 12.9615C11.1967 11.2082 13.1259 8.81758 13.8622 6.6992C14.2298 5.64178 14.2873 4.69346 14.0835 3.93225C13.885 3.19105 13.4278 2.57785 12.6494 2.16164C11.5432 1.57018 10.689 1.78541 10.0405 2.22829Z" fill="#A7AEB9"/>
</svg>
