<svg width="24" height="24" viewBox="0 0 24 24" fill="none" xmlns="http://www.w3.org/2000/svg">
<g id="insta" clip-path="url(#clip0_2_249)">
<path id="_&#237;&#140;&#168;&#236;&#138;&#164;_19045" d="M12.0048 -0.000377598C13.8766 -0.000377598 15.7437 -0.000377598 17.6108 -0.000377598C18.8586 -0.0426146 20.0924 0.295281 21.1479 0.961687C22.8602 2.10209 23.8969 3.67893 23.9345 5.75324C24.0001 9.75637 24.0142 13.7642 23.9814 17.772C24.0611 20.203 22.6538 22.4369 20.4302 23.4224C19.5623 23.8213 18.6147 24.0184 17.6624 23.9902C13.8907 23.9996 10.1143 23.9902 6.3426 23.9949C3.62642 24.0982 1.17294 22.3758 0.347292 19.7853C0.13619 19.0861 0.0282929 18.3633 0.0236018 17.6359C-0.00454524 13.8721 -0.0092364 10.1083 0.0189106 6.34456C0.0329841 3.70709 1.19639 1.74542 3.58889 0.567475C4.47083 0.16857 5.42782 -0.0238426 6.3942 0.0043154C8.26129 -0.0050706 10.1331 0.0043154 12.0001 0.0043154M11.972 21.3058C13.8297 21.3058 15.6874 21.3105 17.5451 21.3011C17.9157 21.3105 18.2863 21.273 18.6475 21.1838C20.3504 20.7286 21.2933 19.4662 21.298 17.6453C21.3074 13.8815 21.3074 10.1177 21.298 6.35394C21.3168 5.75793 21.1948 5.17131 20.9368 4.63161C20.3223 3.37389 19.0134 2.60893 17.6155 2.6934C13.8766 2.68402 10.1378 2.68871 6.3989 2.6934C6.03768 2.68402 5.68115 2.72625 5.334 2.81073C3.72493 3.17209 2.60843 4.64569 2.70226 6.29293C2.68349 10.0896 2.68818 13.8909 2.70226 17.6875C2.65535 18.8373 3.18545 19.9355 4.10961 20.616C4.77575 21.09 5.58263 21.3293 6.40359 21.2965C8.26129 21.3011 10.119 21.2965 11.9767 21.2965" fill="#999999"/>
<path id="_&#237;&#140;&#168;&#236;&#138;&#164;_19046" d="M18.1688 11.709C18.3236 15.1208 15.6872 18.0117 12.2767 18.1665C8.86624 18.3214 5.97648 15.6839 5.82167 12.2721C5.67155 8.98703 8.12034 6.16185 11.3901 5.83803C14.7677 5.48606 17.7888 7.9405 18.136 11.3195C18.1501 11.4509 18.1594 11.5776 18.1641 11.709M15.4808 12.0046C15.4808 10.0805 13.928 8.51773 12.0046 8.51773C10.0812 8.51773 8.51909 10.0711 8.51909 11.9952C8.51909 13.9147 10.0672 15.4728 11.9859 15.4821C13.8999 15.5009 15.4667 13.9616 15.4808 12.0469C15.4808 12.0328 15.4808 12.0187 15.4808 12.0046Z" fill="#999999"/>
<path id="_&#237;&#131;&#128;&#236;&#155;&#144;_716" d="M18.4462 6.60768C19.081 6.60768 19.5955 6.0929 19.5955 5.45789C19.5955 4.82288 19.081 4.30811 18.4462 4.30811C17.8115 4.30811 17.2969 4.82288 17.2969 5.45789C17.2969 6.0929 17.8115 6.60768 18.4462 6.60768Z" fill="#999999"/>
</g>
<defs>
<clipPath id="clip0_2_249">
<rect width="24" height="24" fill="white"/>
</clipPath>
</defs>
</svg>
