<svg width="16" height="16" viewBox="0 0 16 16" fill="none" xmlns="http://www.w3.org/2000/svg">
<path fill-rule="evenodd" clip-rule="evenodd" d="M7.15193 3.1913C7.04769 3.54383 6.91654 3.95539 6.71574 4.35699C6.19543 5.39761 5.23005 6.41444 4.19923 7.02787L2.89649 12.6731C3.0939 12.7645 3.38078 12.8679 3.77774 12.9787C4.62408 13.2149 5.87597 13.4591 7.61334 13.7073C9.35702 13.9564 10.355 13.7784 10.9179 13.5269C11.4489 13.2896 11.6543 12.9599 11.7574 12.7021C11.8037 12.5864 11.8596 12.4519 11.9224 12.3006C12.2882 11.42 12.89 9.97104 13.2157 8.34233C13.3215 7.81325 13.2781 7.49902 13.2152 7.32191C13.1569 7.15813 13.0648 7.06115 12.9512 6.99012C12.6697 6.81418 12.2677 6.79922 12.0002 6.79922H8.5002C8.22294 6.79922 7.96544 6.65566 7.81968 6.4198C7.67391 6.18395 7.66066 5.88944 7.78466 5.64145C8.24258 4.7256 8.53803 3.6034 8.52352 2.76303C8.5162 2.33885 8.43146 2.07946 8.34266 1.94874C8.28615 1.86554 8.21305 1.79922 8.0002 1.79922C7.78684 1.79922 7.70982 1.85237 7.67049 1.88616C7.6091 1.93889 7.52838 2.0479 7.43391 2.2885C7.35841 2.48077 7.2977 2.6902 7.22241 2.94988C7.20041 3.02578 7.17716 3.10598 7.15193 3.1913ZM6.62795 0.67244C6.99943 0.353359 7.46355 0.199219 8.0002 0.199219C8.71828 0.199219 9.29815 0.507898 9.66619 1.0497C10.0019 1.54397 10.1133 2.15959 10.1233 2.73541C10.1367 3.51017 9.96903 4.38232 9.69462 5.19922H12.0002C12.007 5.19922 12.0142 5.19921 12.022 5.19919C12.2819 5.19874 13.1016 5.19732 13.7992 5.63332C14.1856 5.87479 14.531 6.24656 14.7227 6.7859C14.9098 7.31192 14.9288 7.93518 14.7847 8.65611C14.4246 10.4567 13.7524 12.0698 13.3912 12.9368C13.3328 13.0769 13.2825 13.1975 13.243 13.2963C13.0128 13.8719 12.5436 14.5529 11.5706 14.9877C10.6295 15.4082 9.29413 15.5636 7.38706 15.2912C5.62443 15.0394 4.29298 14.7836 3.34766 14.5198C2.87608 14.3882 2.47669 14.2481 2.15899 14.0941C1.86309 13.9506 1.53841 13.7487 1.33456 13.443C1.21234 13.2596 1.17114 13.034 1.22069 12.8193L2.72069 6.31933C2.77434 6.08682 2.929 5.89039 3.14243 5.78368C3.98761 5.36109 4.86207 4.48663 5.28466 3.64145C5.41927 3.37223 5.51832 3.07337 5.6176 2.73762C5.6357 2.67639 5.65427 2.61214 5.67342 2.54588C5.75155 2.27554 5.83933 1.97182 5.94461 1.7037C6.07878 1.36201 6.27853 0.972582 6.62795 0.67244Z" fill="#4992FF"/>
<rect x="1" y="5" width="4" height="10" rx="1" fill="#4992FF"/>
</svg>
