<svg width="36" height="36" viewBox="0 0 36 36" fill="none" xmlns="http://www.w3.org/2000/svg">
<g id="icon">
<path id="Vector" d="M30.3127 18C30.3127 16.9708 30.1743 15.9785 29.9389 15.0231L33.7235 12.2631L30.7512 7.11231L26.4727 9.01385C25.0373 7.63847 23.2789 6.6 21.3173 6.03231L20.8235 1.38H14.8789L14.385 6.03231C12.4235 6.6 10.665 7.63385 9.22965 9.01385L4.95119 7.11231L1.97888 12.2631L5.7635 15.0231C5.52811 15.9785 5.38965 16.9708 5.38965 18C5.38965 19.0292 5.52811 20.0215 5.7635 20.9769L1.97888 23.7369L4.95119 28.8877L9.22965 26.9908C10.665 28.3662 12.4235 29.4046 14.385 29.9723L14.8789 34.6246H20.8235L21.3173 29.9723C23.2789 29.4046 25.0373 28.3708 26.4727 26.9908L30.7512 28.8877L33.7235 23.7369L29.9389 20.9769C30.1743 20.0215 30.3127 19.0292 30.3127 18ZM17.8512 23.8662C14.6112 23.8662 11.985 21.24 11.985 18C11.985 14.76 14.6112 12.1339 17.8512 12.1339C21.0912 12.1339 23.7173 14.76 23.7173 18C23.7173 21.24 21.0912 23.8662 17.8512 23.8662Z" fill="#53B474"/>
</g>
</svg>
